# xmcd
#
# Track frame offsets: 
#        150
#        11917
#        27911
#        43864
#        58915
#        73515
#        90804
#        105208
#        116764
#        136463
#        149990
#        164282
#        179344
#        193583
#
# Disc length: 2774 seconds
#
# Revision: 2
# Processed by: cddbd v1.5.2PL0 Copyright (c) Steve Scherf et al.
# Submitted via: ExactAudioCopy v1.0b3
#
DISCID=c80ad40e
DTITLE=Truck Stop - Starboulevard CD2
DYEAR=2004
DGENRE=Country
TTITLE0=Bleifuss Joe
TTITLE1=Kopf oder Zahl (Geh'n wir nun zu dir - oder mir)
TTITLE2=Hannas Mann
TTITLE3=Easy Rider
TTITLE4=Ein Tag wie ein Freund
TTITLE5=Old Texas Town, die Westernstadt
TTITLE6=Der Koenig von der Autobahn
TTITLE7=Lass die Madels wissen...
TTITLE8=Nein danke, ich rauch' nicht mehr
TTITLE9=Das Maedchen wird schoener mit jedem Glas Bier
TTITLE10=Angeln entspannt
TTITLE11=Coutry New Wave
TTITLE12=Happy Birthday
TTITLE13=Der Tramp
EXTD=YEAR: 2004
EXTT0=
EXTT1=
EXTT2=
EXTT3=
EXTT4=
EXTT5=
EXTT6=
EXTT7=
EXTT8=
EXTT9=
EXTT10=
EXTT11=
EXTT12=
EXTT13=
PLAYORDER=
